<mxfile host="Electron" agent="Mozilla/5.0 (Windows NT 10.0; Win64; x64) AppleWebKit/537.36 (KHTML, like Gecko) draw.io/28.1.2 Chrome/138.0.7204.243 Electron/37.4.0 Safari/537.36" version="28.1.2">
  <diagram name="Pagina-1" id="Rdy6wbEMz2susaXw2Gpt">
    <mxGraphModel dx="868" dy="550" grid="0" gridSize="10" guides="1" tooltips="1" connect="1" arrows="1" fold="1" page="1" pageScale="1" pageWidth="1169" pageHeight="827" math="0" shadow="0">
      <root>
        <mxCell id="0" />
        <mxCell id="1" parent="0" />
        <mxCell id="YTPdSIc31e-qfsYok3Ke-1" value="Domain" style="shape=folder;fontStyle=1;tabWidth=110;tabHeight=30;tabPosition=left;html=1;boundedLbl=1;labelInHeader=1;container=1;collapsible=0;recursiveResize=0;whiteSpace=wrap;" vertex="1" parent="1">
          <mxGeometry x="310" y="380" width="110" height="110" as="geometry" />
        </mxCell>
        <mxCell id="YTPdSIc31e-qfsYok3Ke-3" value="DTO" style="shape=folder;fontStyle=1;tabWidth=110;tabHeight=30;tabPosition=left;html=1;boundedLbl=1;labelInHeader=1;container=1;collapsible=0;recursiveResize=0;whiteSpace=wrap;" vertex="1" parent="YTPdSIc31e-qfsYok3Ke-1">
          <mxGeometry x="40" y="40" width="60" height="60" as="geometry" />
        </mxCell>
        <mxCell id="YTPdSIc31e-qfsYok3Ke-5" value="BusinessLogic" style="shape=folder;fontStyle=1;tabWidth=110;tabHeight=30;tabPosition=left;html=1;boundedLbl=1;labelInHeader=1;container=1;collapsible=0;recursiveResize=0;whiteSpace=wrap;" vertex="1" parent="1">
          <mxGeometry x="450" y="120" width="280" height="271" as="geometry" />
        </mxCell>
        <mxCell id="YTPdSIc31e-qfsYok3Ke-11" value="Service" style="shape=folder;fontStyle=1;tabWidth=110;tabHeight=30;tabPosition=left;html=1;boundedLbl=1;labelInHeader=1;container=1;collapsible=0;recursiveResize=0;whiteSpace=wrap;" vertex="1" parent="YTPdSIc31e-qfsYok3Ke-5">
          <mxGeometry x="10" y="150" width="130" height="100" as="geometry" />
        </mxCell>
        <mxCell id="YTPdSIc31e-qfsYok3Ke-13" value="Controller" style="shape=folder;fontStyle=1;tabWidth=110;tabHeight=30;tabPosition=left;html=1;boundedLbl=1;labelInHeader=1;container=1;collapsible=0;recursiveResize=0;whiteSpace=wrap;" vertex="1" parent="YTPdSIc31e-qfsYok3Ke-5">
          <mxGeometry x="150" y="160" width="120" height="90" as="geometry" />
        </mxCell>
        <mxCell id="YTPdSIc31e-qfsYok3Ke-16" value="RailSuiteFacade" style="html=1;whiteSpace=wrap;" vertex="1" parent="YTPdSIc31e-qfsYok3Ke-5">
          <mxGeometry width="110" height="30" relative="1" as="geometry">
            <mxPoint x="10" y="40" as="offset" />
          </mxGeometry>
        </mxCell>
        <mxCell id="YTPdSIc31e-qfsYok3Ke-55" value="" style="endArrow=classic;html=1;rounded=0;strokeColor=default;align=center;verticalAlign=middle;fontFamily=Helvetica;fontSize=11;fontColor=default;labelBackgroundColor=default;edgeStyle=orthogonalEdgeStyle;dashed=1;" edge="1" parent="YTPdSIc31e-qfsYok3Ke-5" source="YTPdSIc31e-qfsYok3Ke-13" target="YTPdSIc31e-qfsYok3Ke-11">
          <mxGeometry relative="1" as="geometry">
            <mxPoint x="170" y="-50" as="sourcePoint" />
            <mxPoint x="300" y="-50" as="targetPoint" />
            <Array as="points">
              <mxPoint x="170" y="130" />
              <mxPoint x="120" y="130" />
            </Array>
          </mxGeometry>
        </mxCell>
        <mxCell id="YTPdSIc31e-qfsYok3Ke-56" value="«uses»" style="edgeLabel;resizable=0;html=1;;align=center;verticalAlign=middle;fontFamily=Helvetica;fontSize=11;fontColor=default;labelBackgroundColor=default;" connectable="0" vertex="1" parent="YTPdSIc31e-qfsYok3Ke-55">
          <mxGeometry relative="1" as="geometry" />
        </mxCell>
        <mxCell id="YTPdSIc31e-qfsYok3Ke-57" value="" style="endArrow=classic;html=1;rounded=0;strokeColor=default;align=center;verticalAlign=middle;fontFamily=Helvetica;fontSize=11;fontColor=default;labelBackgroundColor=default;edgeStyle=orthogonalEdgeStyle;dashed=1;" edge="1" parent="YTPdSIc31e-qfsYok3Ke-5" source="YTPdSIc31e-qfsYok3Ke-11" target="YTPdSIc31e-qfsYok3Ke-16">
          <mxGeometry relative="1" as="geometry">
            <mxPoint x="170" y="-50" as="sourcePoint" />
            <mxPoint x="300" y="-50" as="targetPoint" />
            <Array as="points">
              <mxPoint x="65" y="90" />
              <mxPoint x="65" y="90" />
            </Array>
          </mxGeometry>
        </mxCell>
        <mxCell id="YTPdSIc31e-qfsYok3Ke-58" value="«uses»" style="edgeLabel;resizable=0;html=1;;align=center;verticalAlign=middle;fontFamily=Helvetica;fontSize=11;fontColor=default;labelBackgroundColor=default;" connectable="0" vertex="1" parent="YTPdSIc31e-qfsYok3Ke-57">
          <mxGeometry relative="1" as="geometry" />
        </mxCell>
        <mxCell id="YTPdSIc31e-qfsYok3Ke-15" value="FXML" style="shape=folder;fontStyle=1;tabWidth=110;tabHeight=30;tabPosition=left;html=1;boundedLbl=1;labelInHeader=1;container=1;collapsible=0;recursiveResize=0;whiteSpace=wrap;" vertex="1" parent="YTPdSIc31e-qfsYok3Ke-5">
          <mxGeometry x="190" y="40" width="80" height="90" as="geometry" />
        </mxCell>
        <mxCell id="YTPdSIc31e-qfsYok3Ke-49" value="" style="endArrow=classic;html=1;rounded=0;strokeColor=default;align=center;verticalAlign=middle;fontFamily=Helvetica;fontSize=11;fontColor=default;labelBackgroundColor=default;edgeStyle=orthogonalEdgeStyle;dashed=1;" edge="1" parent="YTPdSIc31e-qfsYok3Ke-5" source="YTPdSIc31e-qfsYok3Ke-15" target="YTPdSIc31e-qfsYok3Ke-13">
          <mxGeometry relative="1" as="geometry">
            <mxPoint x="90" y="-40" as="sourcePoint" />
            <mxPoint x="220" y="-40" as="targetPoint" />
            <Array as="points">
              <mxPoint x="230" y="140" />
              <mxPoint x="230" y="140" />
            </Array>
          </mxGeometry>
        </mxCell>
        <mxCell id="YTPdSIc31e-qfsYok3Ke-50" value="«uses»" style="edgeLabel;resizable=0;html=1;;align=center;verticalAlign=middle;fontFamily=Helvetica;fontSize=11;fontColor=default;labelBackgroundColor=default;" connectable="0" vertex="1" parent="YTPdSIc31e-qfsYok3Ke-49">
          <mxGeometry relative="1" as="geometry" />
        </mxCell>
        <mxCell id="YTPdSIc31e-qfsYok3Ke-17" value="Mapper" style="shape=folder;fontStyle=1;tabWidth=110;tabHeight=30;tabPosition=left;html=1;boundedLbl=1;labelInHeader=1;container=1;collapsible=0;recursiveResize=0;whiteSpace=wrap;" vertex="1" parent="1">
          <mxGeometry x="260" y="260" width="120" height="70" as="geometry" />
        </mxCell>
        <mxCell id="YTPdSIc31e-qfsYok3Ke-19" value="Dao" style="shape=folder;fontStyle=1;tabWidth=110;tabHeight=30;tabPosition=left;html=1;boundedLbl=1;labelInHeader=1;container=1;collapsible=0;recursiveResize=0;whiteSpace=wrap;" vertex="1" parent="1">
          <mxGeometry x="260" y="140" width="110" height="70" as="geometry" />
        </mxCell>
        <mxCell id="YTPdSIc31e-qfsYok3Ke-21" style="edgeStyle=orthogonalEdgeStyle;rounded=0;orthogonalLoop=1;jettySize=auto;html=1;exitX=0.5;exitY=1;exitDx=0;exitDy=0;exitPerimeter=0;" edge="1" parent="1" source="YTPdSIc31e-qfsYok3Ke-17" target="YTPdSIc31e-qfsYok3Ke-17">
          <mxGeometry relative="1" as="geometry" />
        </mxCell>
        <mxCell id="YTPdSIc31e-qfsYok3Ke-59" value="" style="endArrow=classic;html=1;rounded=0;strokeColor=default;align=center;verticalAlign=middle;fontFamily=Helvetica;fontSize=11;fontColor=default;labelBackgroundColor=default;edgeStyle=orthogonalEdgeStyle;dashed=1;" edge="1" parent="1" source="YTPdSIc31e-qfsYok3Ke-16" target="YTPdSIc31e-qfsYok3Ke-19">
          <mxGeometry relative="1" as="geometry">
            <mxPoint x="410" y="170" as="sourcePoint" />
            <mxPoint x="540" y="170" as="targetPoint" />
          </mxGeometry>
        </mxCell>
        <mxCell id="YTPdSIc31e-qfsYok3Ke-60" value="«uses»" style="edgeLabel;resizable=0;html=1;;align=center;verticalAlign=middle;fontFamily=Helvetica;fontSize=11;fontColor=default;labelBackgroundColor=default;" connectable="0" vertex="1" parent="YTPdSIc31e-qfsYok3Ke-59">
          <mxGeometry relative="1" as="geometry" />
        </mxCell>
        <mxCell id="YTPdSIc31e-qfsYok3Ke-61" value="" style="endArrow=classic;html=1;rounded=0;strokeColor=default;align=center;verticalAlign=middle;fontFamily=Helvetica;fontSize=11;fontColor=default;labelBackgroundColor=default;edgeStyle=orthogonalEdgeStyle;dashed=1;" edge="1" parent="1" source="YTPdSIc31e-qfsYok3Ke-19" target="YTPdSIc31e-qfsYok3Ke-17">
          <mxGeometry relative="1" as="geometry">
            <mxPoint x="200" y="140" as="sourcePoint" />
            <mxPoint x="330" y="140" as="targetPoint" />
            <Array as="points">
              <mxPoint x="270" y="240" />
              <mxPoint x="270" y="240" />
            </Array>
          </mxGeometry>
        </mxCell>
        <mxCell id="YTPdSIc31e-qfsYok3Ke-62" value="«uses»" style="edgeLabel;resizable=0;html=1;;align=center;verticalAlign=middle;fontFamily=Helvetica;fontSize=11;fontColor=default;labelBackgroundColor=default;" connectable="0" vertex="1" parent="YTPdSIc31e-qfsYok3Ke-61">
          <mxGeometry relative="1" as="geometry" />
        </mxCell>
        <mxCell id="YTPdSIc31e-qfsYok3Ke-63" value="" style="endArrow=classic;html=1;rounded=0;strokeColor=default;align=center;verticalAlign=middle;fontFamily=Helvetica;fontSize=11;fontColor=default;labelBackgroundColor=default;edgeStyle=orthogonalEdgeStyle;dashed=1;" edge="1" parent="1" source="YTPdSIc31e-qfsYok3Ke-17" target="YTPdSIc31e-qfsYok3Ke-1">
          <mxGeometry relative="1" as="geometry">
            <mxPoint x="180" y="300" as="sourcePoint" />
            <mxPoint x="310" y="300" as="targetPoint" />
            <Array as="points">
              <mxPoint x="290" y="435" />
            </Array>
          </mxGeometry>
        </mxCell>
        <mxCell id="YTPdSIc31e-qfsYok3Ke-64" value="«creates»" style="edgeLabel;resizable=0;html=1;;align=center;verticalAlign=middle;fontFamily=Helvetica;fontSize=11;fontColor=default;labelBackgroundColor=default;" connectable="0" vertex="1" parent="YTPdSIc31e-qfsYok3Ke-63">
          <mxGeometry relative="1" as="geometry" />
        </mxCell>
        <mxCell id="YTPdSIc31e-qfsYok3Ke-65" value="" style="endArrow=classic;html=1;rounded=0;strokeColor=default;align=center;verticalAlign=middle;fontFamily=Helvetica;fontSize=11;fontColor=default;labelBackgroundColor=default;edgeStyle=orthogonalEdgeStyle;dashed=1;" edge="1" parent="1" source="YTPdSIc31e-qfsYok3Ke-11" target="YTPdSIc31e-qfsYok3Ke-1">
          <mxGeometry relative="1" as="geometry">
            <mxPoint x="420" y="310" as="sourcePoint" />
            <mxPoint x="550" y="310" as="targetPoint" />
            <Array as="points">
              <mxPoint x="400" y="325" />
            </Array>
          </mxGeometry>
        </mxCell>
        <mxCell id="YTPdSIc31e-qfsYok3Ke-66" value="«uses»" style="edgeLabel;resizable=0;html=1;;align=center;verticalAlign=middle;fontFamily=Helvetica;fontSize=11;fontColor=default;labelBackgroundColor=default;" connectable="0" vertex="1" parent="YTPdSIc31e-qfsYok3Ke-65">
          <mxGeometry relative="1" as="geometry" />
        </mxCell>
        <mxCell id="YTPdSIc31e-qfsYok3Ke-68" value="&lt;b style=&quot;background-color: light-dark(rgb(245, 245, 245), rgb(237, 237, 237));&quot;&gt;Observer&lt;/b&gt;" style="ellipse;whiteSpace=wrap;html=1;fontFamily=Helvetica;fontSize=11;fontColor=#333333;labelBackgroundColor=default;dashed=1;dashPattern=8 8;fillColor=#f5f5f5;strokeColor=#666666;" vertex="1" parent="1">
          <mxGeometry x="600" y="450" width="120" height="40" as="geometry" />
        </mxCell>
        <mxCell id="YTPdSIc31e-qfsYok3Ke-69" value="" style="endArrow=none;dashed=1;html=1;strokeWidth=2;rounded=0;strokeColor=#666666;align=center;verticalAlign=middle;fontFamily=Helvetica;fontSize=11;fontColor=default;labelBackgroundColor=default;fillColor=#f5f5f5;" edge="1" parent="1" source="YTPdSIc31e-qfsYok3Ke-68" target="YTPdSIc31e-qfsYok3Ke-11">
          <mxGeometry width="50" height="50" relative="1" as="geometry">
            <mxPoint x="460" y="470" as="sourcePoint" />
            <mxPoint x="510" y="420" as="targetPoint" />
          </mxGeometry>
        </mxCell>
        <mxCell id="YTPdSIc31e-qfsYok3Ke-70" value="«NotificationService&lt;span style=&quot;background-color: light-dark(#ffffff, var(--ge-dark-color, #121212)); color: light-dark(rgb(0, 0, 0), rgb(255, 255, 255));&quot;&gt;»&lt;/span&gt;" style="edgeLabel;html=1;align=center;verticalAlign=middle;resizable=0;points=[];fontFamily=Helvetica;fontSize=11;fontColor=default;labelBackgroundColor=default;" vertex="1" connectable="0" parent="YTPdSIc31e-qfsYok3Ke-69">
          <mxGeometry x="-0.0336" y="-1" relative="1" as="geometry">
            <mxPoint x="-56" as="offset" />
          </mxGeometry>
        </mxCell>
        <mxCell id="YTPdSIc31e-qfsYok3Ke-71" value="" style="endArrow=none;dashed=1;html=1;strokeWidth=2;rounded=0;strokeColor=#666666;align=center;verticalAlign=middle;fontFamily=Helvetica;fontSize=11;fontColor=default;labelBackgroundColor=default;fillColor=#f5f5f5;" edge="1" parent="1" source="YTPdSIc31e-qfsYok3Ke-68" target="YTPdSIc31e-qfsYok3Ke-1">
          <mxGeometry width="50" height="50" relative="1" as="geometry">
            <mxPoint x="424" y="480" as="sourcePoint" />
            <mxPoint x="390" y="400" as="targetPoint" />
          </mxGeometry>
        </mxCell>
        <mxCell id="YTPdSIc31e-qfsYok3Ke-72" value="«NotificationObserver&lt;span style=&quot;background-color: light-dark(#ffffff, var(--ge-dark-color, #121212)); color: light-dark(rgb(0, 0, 0), rgb(255, 255, 255));&quot;&gt;»&lt;/span&gt;" style="edgeLabel;html=1;align=center;verticalAlign=middle;resizable=0;points=[];fontFamily=Helvetica;fontSize=11;fontColor=default;labelBackgroundColor=default;" vertex="1" connectable="0" parent="YTPdSIc31e-qfsYok3Ke-71">
          <mxGeometry x="-0.0336" y="-1" relative="1" as="geometry">
            <mxPoint x="-9" y="13" as="offset" />
          </mxGeometry>
        </mxCell>
        <mxCell id="YTPdSIc31e-qfsYok3Ke-73" value="" style="endArrow=none;dashed=1;html=1;strokeWidth=2;rounded=0;strokeColor=#666666;align=center;verticalAlign=middle;fontFamily=Helvetica;fontSize=11;fontColor=default;labelBackgroundColor=default;entryX=0.75;entryY=1;entryDx=0;entryDy=0;entryPerimeter=0;fillColor=#f5f5f5;" edge="1" parent="1" source="YTPdSIc31e-qfsYok3Ke-68" target="YTPdSIc31e-qfsYok3Ke-13">
          <mxGeometry width="50" height="50" relative="1" as="geometry">
            <mxPoint x="704" y="510" as="sourcePoint" />
            <mxPoint x="670" y="430" as="targetPoint" />
          </mxGeometry>
        </mxCell>
        <mxCell id="YTPdSIc31e-qfsYok3Ke-74" value="«SupervisorHomeController&lt;span style=&quot;background-color: light-dark(#ffffff, var(--ge-dark-color, #121212)); color: light-dark(rgb(0, 0, 0), rgb(255, 255, 255));&quot;&gt;»&lt;/span&gt;" style="edgeLabel;html=1;align=center;verticalAlign=middle;resizable=0;points=[];fontFamily=Helvetica;fontSize=11;fontColor=default;labelBackgroundColor=default;" vertex="1" connectable="0" parent="YTPdSIc31e-qfsYok3Ke-73">
          <mxGeometry x="-0.0336" y="-1" relative="1" as="geometry">
            <mxPoint x="2" y="-4" as="offset" />
          </mxGeometry>
        </mxCell>
      </root>
    </mxGraphModel>
  </diagram>
</mxfile>
